<svg width="159" height="56" viewBox="0 0 159 56" fill="none" xmlns="http://www.w3.org/2000/svg">
<path d="M21.584 20.5893H23.096V31.9293H28.928V33.3333H21.584V20.5893ZM37.856 31.8033C37.352 32.4513 36.8 32.9073 36.2 33.1713C35.6 33.4233 34.904 33.5493 34.112 33.5493C33.452 33.5493 32.858 33.4353 32.33 33.2073C31.802 32.9673 31.352 32.6493 30.98 32.2533C30.62 31.8573 30.338 31.3893 30.134 30.8493C29.942 30.3093 29.846 29.7333 29.846 29.1213C29.846 28.4733 29.954 27.8793 30.17 27.3393C30.386 26.7873 30.686 26.3193 31.07 25.9353C31.454 25.5393 31.91 25.2333 32.438 25.0173C32.966 24.8013 33.542 24.6933 34.166 24.6933C34.754 24.6933 35.294 24.7953 35.786 24.9993C36.278 25.1913 36.698 25.4793 37.046 25.8633C37.406 26.2353 37.682 26.6973 37.874 27.2493C38.066 27.7893 38.162 28.4073 38.162 29.1033V29.5533H31.358C31.382 29.9133 31.466 30.2613 31.61 30.5973C31.766 30.9213 31.964 31.2093 32.204 31.4613C32.444 31.7013 32.726 31.8933 33.05 32.0373C33.374 32.1813 33.728 32.2533 34.112 32.2533C34.724 32.2533 35.24 32.1453 35.66 31.9293C36.08 31.7133 36.458 31.3953 36.794 30.9753L37.856 31.8033ZM36.65 28.3653C36.626 27.6453 36.392 27.0693 35.948 26.6373C35.504 26.2053 34.892 25.9893 34.112 25.9893C33.332 25.9893 32.702 26.2053 32.222 26.6373C31.742 27.0693 31.454 27.6453 31.358 28.3653H36.65ZM40.226 25.9893C40.658 25.5453 41.168 25.2213 41.756 25.0173C42.356 24.8013 42.962 24.6933 43.574 24.6933C44.822 24.6933 45.722 24.9873 46.274 25.5753C46.826 26.1633 47.102 27.0573 47.102 28.2573V31.8753C47.102 32.1153 47.114 32.3673 47.138 32.6313C47.162 32.8833 47.192 33.1173 47.228 33.3333H45.878C45.83 33.1413 45.8 32.9313 45.788 32.7033C45.788 32.4633 45.788 32.2533 45.788 32.0733H45.752C45.476 32.5053 45.104 32.8593 44.636 33.1353C44.18 33.4113 43.628 33.5493 42.98 33.5493C42.548 33.5493 42.14 33.4953 41.756 33.3873C41.384 33.2793 41.054 33.1233 40.766 32.9193C40.49 32.7033 40.268 32.4393 40.1 32.1273C39.932 31.8153 39.848 31.4553 39.848 31.0473C39.848 30.3513 40.028 29.8053 40.388 29.4093C40.748 29.0133 41.192 28.7193 41.72 28.5273C42.26 28.3353 42.836 28.2153 43.448 28.1673C44.072 28.1193 44.642 28.0953 45.158 28.0953H45.698V27.8433C45.698 27.2313 45.512 26.7693 45.14 26.4573C44.78 26.1453 44.27 25.9893 43.61 25.9893C43.154 25.9893 42.704 26.0673 42.26 26.2233C41.828 26.3673 41.444 26.5953 41.108 26.9073L40.226 25.9893ZM44.294 29.2833C43.394 29.2833 42.68 29.4093 42.152 29.6613C41.624 29.9133 41.36 30.3273 41.36 30.9033C41.36 31.4313 41.534 31.8093 41.882 32.0373C42.242 32.2533 42.686 32.3613 43.214 32.3613C43.622 32.3613 43.976 32.2953 44.276 32.1633C44.588 32.0193 44.846 31.8333 45.05 31.6053C45.254 31.3773 45.41 31.1133 45.518 30.8133C45.626 30.5013 45.686 30.1713 45.698 29.8233V29.2833H44.294ZM49.6679 26.9073C49.6679 26.5233 49.6559 26.1633 49.6319 25.8273C49.6079 25.4913 49.5959 25.1853 49.5959 24.9093H50.9279C50.9279 25.1373 50.9339 25.3653 50.9459 25.5933C50.9579 25.8213 50.9639 26.0553 50.9639 26.2953H50.9999C51.0959 26.0913 51.2279 25.8933 51.3959 25.7013C51.5759 25.5093 51.7859 25.3413 52.0259 25.1973C52.2659 25.0413 52.5359 24.9213 52.8359 24.8373C53.1359 24.7413 53.4599 24.6933 53.8079 24.6933C53.9039 24.6933 53.9999 24.6993 54.0959 24.7113C54.1919 24.7233 54.2879 24.7473 54.3839 24.7833L54.2939 26.2053C54.0539 26.1333 53.8019 26.0973 53.5379 26.0973C52.6739 26.0973 52.0439 26.3793 51.6479 26.9433C51.2639 27.4953 51.0719 28.2573 51.0719 29.2293V33.3333H49.6679V26.9073ZM55.9961 26.9073C55.9961 26.5233 55.9841 26.1633 55.9601 25.8273C55.9361 25.4913 55.9241 25.1853 55.9241 24.9093H57.2561C57.2561 25.1373 57.2621 25.3653 57.2741 25.5933C57.2861 25.8213 57.2921 26.0553 57.2921 26.2953H57.3281C57.4241 26.0913 57.5561 25.8933 57.7241 25.7013C57.9041 25.5093 58.1141 25.3413 58.3541 25.1973C58.5941 25.0413 58.8641 24.9213 59.1641 24.8373C59.4641 24.7413 59.7881 24.6933 60.1361 24.6933C60.6881 24.6933 61.1621 24.7773 61.5581 24.9453C61.9661 25.1133 62.3021 25.3473 62.5661 25.6473C62.8301 25.9473 63.0221 26.3133 63.1421 26.7453C63.2741 27.1653 63.3401 27.6273 63.3401 28.1313V33.3333H61.9361V28.2753C61.9361 27.5673 61.7801 27.0093 61.4681 26.6013C61.1561 26.1933 60.6701 25.9893 60.0101 25.9893C59.5541 25.9893 59.1581 26.0673 58.8221 26.2233C58.4981 26.3793 58.2281 26.6013 58.0121 26.8893C57.8081 27.1773 57.6521 27.5193 57.5441 27.9153C57.4481 28.3113 57.4001 28.7493 57.4001 29.2293V33.3333H55.9961V26.9073ZM71.2598 20.5893H73.5098L77.8298 30.5793H77.8658L82.2218 20.5893H84.4178V33.3333H82.9058V22.6413H82.8698L78.2978 33.3333H77.3798L72.8078 22.6413H72.7718V33.3333H71.2598V20.5893ZM86.8519 29.1213C86.8519 28.4613 86.9659 27.8613 87.1939 27.3213C87.4219 26.7813 87.7339 26.3193 88.1299 25.9353C88.5259 25.5393 88.9999 25.2333 89.5519 25.0173C90.1039 24.8013 90.7039 24.6933 91.3519 24.6933C91.9999 24.6933 92.5999 24.8013 93.1519 25.0173C93.7039 25.2333 94.1779 25.5393 94.5739 25.9353C94.9699 26.3193 95.2819 26.7813 95.5099 27.3213C95.7379 27.8613 95.8519 28.4613 95.8519 29.1213C95.8519 29.7813 95.7379 30.3813 95.5099 30.9213C95.2819 31.4613 94.9699 31.9293 94.5739 32.3253C94.1779 32.7093 93.7039 33.0093 93.1519 33.2253C92.5999 33.4413 91.9999 33.5493 91.3519 33.5493C90.7039 33.5493 90.1039 33.4413 89.5519 33.2253C88.9999 33.0093 88.5259 32.7093 88.1299 32.3253C87.7339 31.9293 87.4219 31.4613 87.1939 30.9213C86.9659 30.3813 86.8519 29.7813 86.8519 29.1213ZM88.3639 29.1213C88.3639 29.5653 88.4299 29.9793 88.5619 30.3633C88.7059 30.7353 88.9099 31.0653 89.1739 31.3533C89.4379 31.6293 89.7499 31.8513 90.1099 32.0193C90.4819 32.1753 90.8959 32.2533 91.3519 32.2533C91.8079 32.2533 92.2159 32.1753 92.5759 32.0193C92.9479 31.8513 93.2659 31.6293 93.5299 31.3533C93.7939 31.0653 93.9919 30.7353 94.1239 30.3633C94.2679 29.9793 94.3399 29.5653 94.3399 29.1213C94.3399 28.6773 94.2679 28.2693 94.1239 27.8973C93.9919 27.5133 93.7939 27.1833 93.5299 26.9073C93.2659 26.6193 92.9479 26.3973 92.5759 26.2413C92.2159 26.0733 91.8079 25.9893 91.3519 25.9893C90.8959 25.9893 90.4819 26.0733 90.1099 26.2413C89.7499 26.3973 89.4379 26.6193 89.1739 26.9073C88.9099 27.1833 88.7059 27.5133 88.5619 27.8973C88.4299 28.2693 88.3639 28.6773 88.3639 29.1213ZM98.0254 26.9073C98.0254 26.5233 98.0134 26.1633 97.9894 25.8273C97.9654 25.4913 97.9534 25.1853 97.9534 24.9093H99.2854C99.2854 25.1373 99.2914 25.3653 99.3034 25.5933C99.3154 25.8213 99.3214 26.0553 99.3214 26.2953H99.3574C99.4534 26.0913 99.5854 25.8933 99.7534 25.7013C99.9334 25.5093 100.143 25.3413 100.383 25.1973C100.623 25.0413 100.893 24.9213 101.193 24.8373C101.493 24.7413 101.817 24.6933 102.165 24.6933C102.261 24.6933 102.357 24.6993 102.453 24.7113C102.549 24.7233 102.645 24.7473 102.741 24.7833L102.651 26.2053C102.411 26.1333 102.159 26.0973 101.895 26.0973C101.031 26.0973 100.401 26.3793 100.005 26.9433C99.6214 27.4953 99.4294 28.2573 99.4294 29.2293V33.3333H98.0254V26.9073ZM111.561 31.8033C111.057 32.4513 110.505 32.9073 109.905 33.1713C109.305 33.4233 108.609 33.5493 107.817 33.5493C107.157 33.5493 106.563 33.4353 106.035 33.2073C105.507 32.9673 105.057 32.6493 104.685 32.2533C104.325 31.8573 104.043 31.3893 103.839 30.8493C103.647 30.3093 103.551 29.7333 103.551 29.1213C103.551 28.4733 103.659 27.8793 103.875 27.3393C104.091 26.7873 104.391 26.3193 104.775 25.9353C105.159 25.5393 105.615 25.2333 106.143 25.0173C106.671 24.8013 107.247 24.6933 107.871 24.6933C108.459 24.6933 108.999 24.7953 109.491 24.9993C109.983 25.1913 110.403 25.4793 110.751 25.8633C111.111 26.2353 111.387 26.6973 111.579 27.2493C111.771 27.7893 111.867 28.4073 111.867 29.1033V29.5533H105.063C105.087 29.9133 105.171 30.2613 105.315 30.5973C105.471 30.9213 105.669 31.2093 105.909 31.4613C106.149 31.7013 106.431 31.8933 106.755 32.0373C107.079 32.1813 107.433 32.2533 107.817 32.2533C108.429 32.2533 108.945 32.1453 109.365 31.9293C109.785 31.7133 110.163 31.3953 110.499 30.9753L111.561 31.8033ZM110.355 28.3653C110.331 27.6453 110.097 27.0693 109.653 26.6373C109.209 26.2053 108.597 25.9893 107.817 25.9893C107.037 25.9893 106.407 26.2053 105.927 26.6373C105.447 27.0693 105.159 27.6453 105.063 28.3653H110.355Z" fill="black"/>
<path d="M132 20.8333L139 27.8333L132 34.8333M123 27.8333H139H123Z" stroke="black" stroke-width="2" stroke-linecap="round" stroke-linejoin="round"/>
</svg>
